<?xml version="1.0" encoding="utf-8"?>
<!-- Generator: Adobe Illustrator 25.4.1, SVG Export Plug-In . SVG Version: 6.00 Build 0)  -->
<svg version="1.1" id="Capa_1" xmlns="http://www.w3.org/2000/svg" xmlns:xlink="http://www.w3.org/1999/xlink" x="0px" y="0px"
	 viewBox="0 0 1366 768" style="enable-background:new 0 0 1366 768;" xml:space="preserve">
<style type="text/css">
	.st0{font-family:'DMSerifText-Regular';}
	.st1{font-size:118.814px;}
	.st2{font-family:'TrajanPro-Regular';}
	.st3{font-size:349.786px;}
</style>
<text transform="matrix(0.8366 0 0 1 520.3535 602.5605)" class="st0 st1">Inmuebles</text>
<text transform="matrix(1.0006 0 0 1 348.2285 492.2207)" class="st2 st3">JDF</text>
<path d="M350.25,195.79c0,0-7.33,13.6,3.45,21.76c10.78,8.16,19.84,4.66,19.84,4.66s10.35-6.64,15.53-12.84s23.29-22.52,51.33-32.63
	c28.04-10.1,45.29-17.1,102.66-22.54c0,0,28.04-4.66,95.76,4.66c67.72,9.33,127.25,21.37,163.92,22.93
	c36.67,1.55,95.33,8.36,121.21,3.3c0,0,63.84-7,72.04-17.68c0,0-16.82,8.16-53.92,11.85c-37.1,3.69-95.98-2.91-95.98-2.91
	s-51.33-6.22-62.12-8.94c-10.78-2.72-71.82-12.44-77.21-14.38c-5.39-1.94-44-8.16-82.82-15.35c-38.82-7.19-86.27-7.38-86.27-7.38
	s-22.65-2.53-85.41,10.69S350.25,195.79,350.25,195.79z"/>
<path d="M728.09,144.19c0,0,74.39,17.62,99.73,16.73c25.34-0.89,64.51-0.53,92.72-7.12c28.21-6.59,58.94-12.99,61.46-29.01
	c0,0-1.26-8.01-10.6-7.65c0,0-6.47-0.18-15.81,7.12c0,0-15.63,10.7-42.41,14.78c-26.77,4.08-19.23,6.93-77.81,6.93
	S728.09,144.19,728.09,144.19z"/>
<polygon points="698.29,13.04 783.71,122.92 949.24,119.39 864.18,8.81 "/>
<polygon points="622.94,123.12 641.76,123.12 702.94,33.76 693.06,21.07 "/>
</svg>
