<?xml version="1.0" encoding="utf-8"?>
<!-- Generator: Adobe Illustrator 25.4.1, SVG Export Plug-In . SVG Version: 6.00 Build 0)  -->
<svg version="1.1" id="Capa_1" xmlns="http://www.w3.org/2000/svg" xmlns:xlink="http://www.w3.org/1999/xlink" x="0px" y="0px"
	 viewBox="0 0 1366 768" style="enable-background:new 0 0 1366 768;" xml:space="preserve">
<style type="text/css">
	.st0{font-family:'DMSerifText-Regular';}
	.st1{font-size:197.5327px;}
	.st2{font-family:'TrajanPro-Regular';}
	.st3{font-size:407.6049px;}
</style>
<text transform="matrix(0.989 0 0 1 395.0005 752.0488)" class="st0 st1">Inmuebles</text>
<text transform="matrix(1.6544 4.208490e-04 -2.543587e-04 1 57.9693 564.4906)" class="st2 st3">JDF</text>
<path d="M43.69,216.4c0,0-14.12,21.83,6.64,34.92c20.76,13.1,38.2,7.48,38.2,7.48s19.93-10.65,29.9-20.61s44.85-36.15,98.83-52.36
	s87.21-27.44,197.67-36.17c0,0,53.98-7.48,184.38,7.48c130.39,14.97,245.01,34.3,315.6,36.8s183.55,13.41,233.38,5.3
	c0,0,122.92-11.23,138.7-28.38c0,0-32.39,13.1-103.82,19.02s-184.79-4.68-184.79-4.68s-98.83-9.98-119.6-14.34
	s-138.28-19.96-148.67-23.08c-10.38-3.12-84.71-13.1-159.46-24.63s-166.11-11.85-166.11-11.85s-43.6-4.05-164.45,17.15
	S43.69,216.4,43.69,216.4z"/>
<path d="M824,145.31c0,0,142.69,30.15,191.28,28.63c48.6-1.52,123.73-0.91,177.84-12.18c54.11-11.27,113.05-22.23,117.87-49.65
	c0,0-2.41-13.71-20.33-13.1c0,0-12.41-0.3-30.33,12.18c0,0-29.99,18.31-81.34,25.3s-36.88,11.86-149.24,11.86
	C917.4,148.36,824,145.31,824,145.31z"/>
<polygon points="850,11.3 981.46,123 1236.24,119.41 1105.32,7 "/>
<polygon points="706.94,132 743.43,132 862,38.31 842.85,25 "/>
</svg>
