<svg width="20" height="20" viewBox="0 0 20 20" fill="none" xmlns="http://www.w3.org/2000/svg">
<path d="M18.7 4.075L10.1 0.075C9.8 -0.025 9.5 -0.025 9.3 0.075L0.5 4.075C0.2 4.275 0 4.675 0 4.975V18.275C0 18.775 0.4 19.275 1 19.275H18.3C18.8 19.275 19.3 18.875 19.3 18.275V4.975C19.2 4.675 19 4.275 18.7 4.075ZM17.3 17.375H1.9V5.675L9.7 2.175L17.3 5.675V17.375Z" fill="white"/>
<path d="M11.1 7.975L6.80002 12.275L6.30002 11.775C6.10002 11.575 5.70002 11.475 5.40002 11.575C5.10002 11.675 4.90002 12.075 4.90002 12.375V14.775C4.90002 14.975 5.00002 15.175 5.20002 15.375C5.20002 15.575 5.40002 15.675 5.70002 15.675H8.10002C8.40002 15.675 8.80002 15.475 8.90002 15.175C9.00002 14.875 8.90002 14.475 8.70002 14.275L8.20002 13.675L12.5 9.375L12.9 9.775C13.1 9.975 13.3 9.975 13.5 9.975C13.6 9.975 13.7 9.975 13.8 9.875C14.1 9.775 14.3 9.375 14.3 9.075V6.675C14.3 6.175 13.9 5.875 13.4 5.875H11C10.7 5.875 10.3 6.075 10.2 6.375C10.1 6.675 10.2 7.075 10.4 7.275L11.1 7.975Z" fill="white"/>
</svg>
