<?xml version="1.0" standalone="no"?>
<!DOCTYPE svg PUBLIC "-//W3C//DTD SVG 20010904//EN"
 "http://www.w3.org/TR/2001/REC-SVG-20010904/DTD/svg10.dtd">
<svg version="1.0" xmlns="http://www.w3.org/2000/svg"
 width="1128.000000pt" height="1128.000000pt" viewBox="0 0 1128.000000 1128.000000"
 preserveAspectRatio="xMidYMid meet">
<metadata>
Created by potrace 1.14, written by Peter Selinger 2001-2017
</metadata>
<g transform="translate(0.000000,1128.000000) scale(0.100000,-0.100000)"
fill="#000000" stroke="none">
<path d="M7030 10071 c0 -38 9 -61 24 -61 7 0 21 -8 32 -19 34 -33 257 -288
319 -365 17 -21 48 -57 70 -80 22 -23 60 -66 85 -96 25 -30 59 -70 76 -89 17
-20 53 -61 79 -91 26 -30 59 -68 74 -85 14 -16 31 -37 36 -46 8 -13 93 -110
160 -183 6 -6 28 -33 50 -61 22 -27 51 -61 65 -75 14 -14 41 -45 60 -69 19
-23 53 -61 75 -84 22 -23 49 -54 60 -69 l20 -28 1262 0 c830 0 1264 3 1268 10
3 6 1 10 -4 10 -6 0 -11 7 -11 15 0 9 -27 46 -61 83 -94 104 -102 112 -160
187 -30 38 -61 77 -69 85 -22 23 -172 202 -276 330 -16 19 -37 44 -46 54 -10
11 -20 28 -24 38 -3 10 -9 18 -13 18 -4 0 -32 30 -61 66 -30 37 -66 78 -80 93
-14 14 -39 44 -55 66 -17 22 -35 45 -42 50 -6 6 -31 35 -55 66 -24 31 -75 92
-115 135 -103 113 -154 174 -166 201 l-10 23 -1284 0 -1283 0 0 -29z"/>
<path d="M6935 9949 c-11 -6 -33 -29 -48 -53 -14 -23 -41 -59 -59 -80 -18 -21
-49 -56 -68 -79 -40 -46 -215 -242 -271 -302 -20 -22 -48 -53 -63 -70 -14 -16
-34 -39 -44 -50 -17 -18 -128 -155 -211 -258 -18 -23 -54 -65 -80 -93 -25 -27
-53 -59 -61 -70 -8 -10 -31 -39 -50 -64 -36 -47 -52 -66 -117 -140 -44 -50
-63 -81 -63 -104 0 -14 22 -16 163 -16 l163 0 70 76 c38 42 76 83 85 92 9 10
33 40 55 67 44 56 57 71 164 194 41 48 93 109 115 136 22 28 45 55 51 60 5 6
28 32 50 60 21 27 46 57 54 66 8 9 35 40 60 70 25 29 61 71 80 94 20 22 56 65
80 95 25 30 56 66 70 80 50 50 80 90 80 105 0 17 -33 57 -116 143 -54 55 -57
56 -89 41z"/>
<path d="M2836 8705 c-306 -24 -644 -72 -921 -131 -231 -49 -555 -139 -640
-178 -16 -8 -48 -21 -70 -29 -290 -110 -524 -221 -685 -325 -109 -71 -277
-208 -381 -312 -123 -122 -145 -166 -137 -274 16 -195 193 -329 394 -297 95
14 142 43 284 171 154 139 212 190 217 190 2 0 16 11 31 25 37 35 169 122 278
183 140 79 292 148 459 209 39 14 75 29 80 33 33 24 378 121 590 164 267 56
658 112 945 137 300 26 805 15 1240 -27 364 -35 1162 -151 1770 -256 63 -11
129 -21 145 -23 17 -2 30 -4 30 -6 0 -1 14 -3 30 -4 17 -1 37 -5 45 -8 59 -22
970 -141 1425 -187 751 -75 1039 -94 1395 -94 349 -1 480 7 805 49 236 31 444
73 574 118 105 36 231 104 231 125 0 15 -34 10 -150 -23 -240 -67 -380 -94
-620 -119 -412 -43 -944 -26 -1565 49 -340 42 -656 90 -785 120 -32 7 -95 19
-245 45 -66 11 -154 27 -195 35 -41 8 -241 46 -445 85 -387 73 -1204 238
-1314 265 -35 9 -70 14 -77 11 -7 -3 -14 -2 -16 3 -3 8 -402 83 -753 141 -373
61 -667 100 -990 131 -185 17 -776 20 -979 4z"/>
<path d="M11085 8516 c-5 -2 -35 -12 -65 -21 -30 -9 -107 -41 -170 -71 -139
-67 -242 -104 -380 -137 -483 -118 -1465 -145 -2605 -71 -399 26 -451 27 -470
17 -17 -10 -17 -11 1 -21 11 -6 114 -31 229 -56 399 -86 659 -132 1062 -191
12 -2 34 -6 50 -9 15 -4 72 -8 126 -11 54 -2 101 -6 105 -8 22 -13 548 -16
744 -4 188 11 270 17 298 24 14 3 39 7 55 8 17 1 44 5 60 8 17 3 59 8 95 12
292 30 616 92 791 153 192 67 269 131 269 226 0 41 -46 112 -85 130 -32 15
-94 27 -110 22z"/>
<path d="M1209 7208 c-2 -119 -1 -131 11 -138 7 -4 52 -18 99 -30 201 -53 298
-129 350 -271 10 -30 22 -70 25 -89 3 -19 8 -46 11 -59 4 -22 10 -247 20 -716
5 -264 15 -684 20 -890 2 -82 7 -280 10 -440 4 -159 8 -337 10 -395 21 -680
21 -1615 0 -1945 -3 -59 -16 -206 -20 -235 -2 -14 -6 -48 -9 -76 -8 -64 -12
-83 -32 -169 -32 -132 -66 -170 -153 -170 -80 0 -116 27 -172 128 -70 126 -74
133 -117 191 -62 82 -170 189 -235 235 -123 84 -289 132 -457 132 -174 1 -323
-56 -431 -162 -94 -93 -133 -194 -134 -344 0 -154 42 -270 137 -371 51 -54
155 -125 218 -149 25 -9 54 -21 65 -26 11 -5 58 -18 105 -28 74 -17 121 -20
365 -19 252 0 291 2 390 23 531 111 953 386 1217 795 83 129 129 220 206 411
105 263 175 510 215 764 3 17 10 59 15 95 6 36 14 90 17 120 3 30 8 66 10 80
2 14 6 57 10 95 3 39 8 88 10 110 8 72 21 287 31 490 4 77 8 667 9 1310 1 644
5 1193 9 1220 23 176 105 272 281 328 100 33 168 51 178 49 8 -2 8 6 10 118
l1 75 -1147 3 -1147 2 -1 -52z"/>
<path d="M3719 7252 c-12 -2 -15 -15 -15 -53 l1 -50 70 -20 c111 -33 163 -86
182 -186 10 -46 11 -2635 2 -2679 -9 -41 -43 -105 -68 -126 -29 -24 -68 -43
-131 -63 l-55 -17 -1 -54 0 -55 710 2 c615 1 728 4 841 19 72 10 141 20 155
23 538 114 919 387 1132 809 49 98 113 278 124 348 3 19 8 38 10 42 2 3 7 28
10 54 3 27 7 51 9 54 8 13 18 203 18 325 0 173 -12 296 -44 443 -108 499 -421
872 -884 1054 -83 33 -204 70 -265 82 -14 3 -49 9 -77 15 -29 6 -76 13 -105
16 -29 3 -66 9 -83 12 -31 6 -1507 11 -1536 5z m1458 -159 c410 -65 627 -305
723 -798 10 -55 22 -130 25 -165 4 -36 8 -76 11 -90 26 -168 21 -749 -10 -955
-3 -22 -8 -60 -11 -85 -3 -24 -17 -96 -31 -160 -90 -401 -280 -623 -605 -705
-53 -13 -128 -27 -165 -31 -93 -9 -402 -12 -416 -3 -8 5 -11 360 -12 1366 -1
747 0 1422 2 1501 l3 143 199 -2 c112 -1 237 -8 287 -16z"/>
<path d="M6817 7250 c-7 -3 -12 -25 -13 -52 l0 -48 80 -26 c129 -43 159 -76
174 -191 4 -32 7 -643 7 -1358 0 -1209 -1 -1304 -17 -1356 -24 -75 -65 -111
-165 -142 l-78 -25 -1 -51 0 -51 662 0 662 0 -2 53 -2 52 -54 13 c-126 30
-158 43 -202 81 -80 71 -79 57 -82 773 -1 343 -1 629 2 636 6 16 507 17 567 1
61 -17 129 -95 209 -239 38 -69 71 -127 73 -129 1 -3 28 -5 58 -6 l55 -2 0
459 0 459 -57 -3 c-46 -2 -60 -7 -68 -23 -54 -108 -135 -244 -166 -279 -66
-75 -85 -79 -396 -80 -266 -2 -272 -1 -275 19 -4 21 -3 403 3 1012 2 230 7
354 14 356 22 7 812 0 845 -8 39 -9 97 -44 120 -71 48 -58 58 -76 200 -349 47
-88 96 -182 111 -210 l27 -50 70 -3 70 -3 -3 33 c-2 18 -6 103 -9 188 -9 240
-17 429 -21 500 -2 36 -4 79 -4 95 l-1 30 -1190 0 c-655 0 -1196 -2 -1203 -5z"/>
<path d="M9635 4296 c-16 -8 -43 -28 -59 -45 -24 -25 -31 -42 -34 -91 -4 -53
-1 -65 32 -125 19 -36 31 -65 26 -65 -23 0 -91 -53 -115 -88 -43 -66 -39 -142
12 -203 38 -45 94 -67 167 -67 63 0 97 13 154 55 l33 25 32 -36 33 -36 97 0
c96 0 123 10 75 29 -24 10 -38 22 -106 95 l-44 46 20 32 c11 18 34 70 52 115
21 53 39 84 51 88 11 4 19 12 19 19 0 8 -18 12 -55 11 -59 0 -92 -18 -56 -30
19 -6 27 -24 21 -50 -1 -5 -3 -17 -5 -25 -4 -16 -33 -81 -53 -117 -12 -22 -14
-21 -76 45 -77 81 -120 132 -115 136 2 1 27 17 56 35 64 40 86 72 86 127 0 47
-20 85 -58 110 -33 21 -150 27 -190 10z m128 -40 c46 -35 36 -142 -18 -192
-31 -28 -41 -24 -76 32 -28 46 -32 111 -9 144 21 30 74 38 103 16z m-123 -313
c0 -5 15 -24 33 -43 18 -19 40 -45 48 -57 9 -12 37 -46 63 -74 26 -28 46 -52
44 -54 -18 -15 -72 -32 -108 -34 -51 -2 -99 22 -127 65 -26 40 -26 120 0 167
18 32 47 51 47 30z"/>
<path d="M7888 3485 c-2 -3 -22 -7 -44 -11 -21 -3 -43 -7 -49 -9 -5 -1 -28 -5
-50 -10 -22 -4 -47 -11 -55 -16 -12 -6 -12 -9 5 -14 47 -15 50 -20 53 -100 3
-71 1 -77 -15 -71 -74 29 -199 27 -266 -3 -99 -45 -147 -129 -143 -248 4 -165
106 -245 291 -231 35 3 78 13 96 22 31 16 48 10 49 -16 0 -6 133 -2 182 6 30
4 32 15 5 25 -14 5 -28 18 -31 28 -3 10 -4 159 -3 330 1 229 -1 314 -10 317
-6 3 -13 3 -15 1z m-160 -264 c15 -8 17 -31 17 -191 1 -171 -1 -181 -20 -194
-32 -20 -87 -25 -129 -11 -62 22 -91 76 -95 177 -4 114 31 197 92 223 33 14
107 12 135 -4z"/>
<path d="M6428 3453 c-52 -33 -48 -91 8 -118 84 -40 190 32 141 96 -31 41
-102 51 -149 22z"/>
<path d="M4054 3413 c-7 -2 -46 -86 -89 -186 -42 -100 -88 -207 -102 -237 -14
-30 -36 -83 -50 -117 -27 -68 -38 -81 -79 -92 -15 -4 -29 -12 -32 -19 -3 -9
22 -12 92 -12 100 0 123 12 65 32 -27 9 -30 14 -25 37 9 37 10 41 29 85 9 21
17 42 17 46 0 14 22 16 154 15 l128 0 30 -74 c30 -78 30 -100 -1 -108 -11 -3
-22 -11 -24 -17 -4 -10 30 -13 151 -12 103 1 157 5 159 12 2 6 -11 15 -29 20
-36 11 -34 7 -221 449 -39 94 -76 173 -82 177 -10 8 -70 8 -91 1z m88 -402 c2
-11 -21 -14 -118 -16 l-122 -1 38 90 c21 50 50 118 65 150 l26 59 54 -134 c29
-74 55 -140 57 -148z"/>
<path d="M8899 3286 c-2 -2 -18 -6 -36 -9 -81 -13 -153 -82 -153 -147 0 -79
81 -136 232 -165 41 -8 89 -39 94 -60 14 -57 -32 -96 -115 -97 -64 0 -107 24
-139 77 -25 40 -53 60 -66 47 -3 -3 -6 -29 -6 -58 0 -42 4 -55 19 -63 34 -18
114 -32 188 -32 188 0 303 99 248 214 -24 51 -60 69 -217 112 -69 19 -108 48
-108 80 0 26 35 65 59 66 9 0 29 3 45 5 40 7 77 -10 104 -49 42 -61 49 -67 64
-62 10 4 15 23 17 59 l1 54 -47 12 c-47 12 -176 23 -184 16z"/>
<path d="M8239 3266 c-239 -63 -286 -352 -74 -461 54 -28 66 -30 164 -30 112
0 147 9 214 53 62 41 102 127 98 207 -7 140 -115 232 -280 239 -42 2 -97 -1
-122 -8z m159 -36 c18 -11 38 -32 44 -48 17 -40 16 -279 -1 -320 -23 -56 -95
-79 -160 -53 -48 20 -65 69 -67 196 -3 137 15 202 61 225 45 23 86 22 123 0z"/>
<path d="M6500 3250 c-127 -34 -150 -41 -150 -48 0 -4 14 -15 30 -24 l30 -17
0 -166 c0 -152 -2 -167 -20 -185 -11 -11 -27 -20 -36 -20 -8 0 -12 -4 -9 -10
4 -6 63 -10 146 -10 86 0 139 4 139 10 0 6 -4 10 -10 10 -5 0 -17 9 -27 20
-17 17 -19 39 -17 235 1 118 -1 217 -5 219 -3 2 -35 -5 -71 -14z"/>
<path d="M6905 3263 c-75 -16 -128 -37 -150 -59 -14 -14 -25 -28 -26 -32 0 -4
-2 -15 -4 -24 -6 -32 28 -61 70 -61 44 0 85 38 85 79 0 36 41 74 76 69 16 -2
35 -4 41 -4 21 -2 40 -54 42 -118 3 -70 13 -63 -109 -82 -90 -15 -157 -42
-196 -81 -28 -27 -34 -40 -34 -75 0 -70 66 -116 165 -116 58 0 97 13 143 48
l34 25 15 -22 c21 -30 73 -50 125 -49 69 1 148 59 81 59 -55 0 -57 6 -59 169
-1 127 -4 155 -21 188 -29 57 -84 83 -180 87 -43 2 -87 1 -98 -1z m135 -323
c0 -77 -1 -80 -28 -94 -15 -8 -44 -17 -63 -21 -29 -5 -41 -2 -62 17 -61 55
-20 145 76 166 80 18 77 21 77 -68z"/>
<path d="M4710 3253 c-63 -11 -132 -47 -156 -82 -65 -95 2 -189 159 -222 71
-16 135 -47 143 -71 18 -58 -32 -99 -123 -99 -43 0 -61 5 -89 26 -19 14 -34
29 -34 33 0 12 -58 72 -70 72 -7 0 -10 -22 -8 -62 l3 -63 55 -18 c104 -35 280
-17 354 36 62 44 70 136 17 191 -30 31 -95 61 -155 72 -16 3 -33 6 -39 7 -25
5 -91 43 -100 58 -6 9 -7 27 -4 41 15 57 154 75 191 25 52 -71 62 -83 76 -82
11 0 16 14 18 55 l3 55 -43 13 c-47 14 -158 22 -198 15z"/>
<path d="M5274 3248 c-68 -14 -145 -67 -179 -122 -26 -44 -30 -58 -30 -125 0
-64 4 -83 27 -121 48 -83 117 -119 238 -127 158 -10 263 36 316 139 22 43 30
145 14 193 -23 70 -102 138 -185 160 -44 11 -154 13 -201 3z m144 -29 c50 -17
66 -64 69 -199 1 -87 -2 -127 -15 -165 -21 -61 -47 -77 -120 -72 -84 6 -103
43 -107 202 -4 142 13 202 65 227 40 21 65 22 108 7z"/>
<path d="M5974 3249 c-196 -36 -293 -233 -191 -386 49 -73 124 -107 239 -110
107 -2 161 14 219 66 32 28 41 42 35 56 -6 17 -8 17 -28 -5 -64 -68 -231 -69
-286 -1 -50 61 -60 197 -22 277 27 54 51 72 113 80 61 9 76 -4 74 -63 -1 -38
3 -49 26 -69 50 -43 127 -22 127 35 0 91 -149 149 -306 120z"/>
<path d="M6710 2235 c-28 -29 -37 -108 -18 -145 18 -33 59 -55 89 -47 67 17
81 157 20 204 -26 20 -66 15 -91 -12z"/>
<path d="M7025 2233 c-105 -33 -117 -44 -79 -76 l28 -25 -1 -428 0 -428 -24
-21 c-46 -41 -37 -45 90 -45 121 0 149 8 111 32 -11 7 -24 29 -29 48 -5 19 -8
243 -7 498 1 255 -1 465 -4 467 -3 2 -41 -8 -85 -22z"/>
<path d="M7283 2236 c-25 -22 -28 -31 -28 -85 0 -52 4 -64 27 -87 22 -22 32
-26 60 -20 44 8 68 48 68 112 0 38 -5 53 -27 76 -33 34 -63 36 -100 4z"/>
<path d="M8533 2236 c-25 -22 -28 -31 -28 -84 0 -50 4 -65 24 -86 57 -61 131
-12 131 86 0 93 -66 136 -127 84z"/>
<path d="M6145 2219 c-44 -17 -84 -34 -88 -38 -5 -5 4 -20 19 -35 l29 -26 -1
-416 0 -417 -24 -19 c-31 -25 -34 -48 -7 -49 37 -2 91 -8 110 -13 27 -7 47 3
47 23 0 30 11 31 46 5 46 -36 134 -41 187 -11 37 21 83 83 105 142 31 83 37
278 12 388 -17 72 -61 138 -111 166 -34 19 -51 23 -95 18 -30 -3 -66 -14 -81
-25 -16 -10 -34 -22 -41 -26 -11 -7 -13 25 -11 166 2 198 2 198 -8 197 -5 0
-44 -14 -88 -30z m248 -375 c41 -41 59 -141 53 -304 -6 -204 -41 -277 -129
-267 -72 8 -72 6 -73 296 l0 259 35 21 c49 28 83 26 114 -5z"/>
<path d="M3724 2186 c1 -8 13 -23 26 -34 l25 -20 2 -423 1 -423 -30 -28 c-16
-15 -27 -32 -23 -38 4 -6 56 -10 131 -10 102 0 124 3 124 15 0 8 -9 19 -19 25
-11 5 -23 20 -27 32 -9 29 -9 817 0 846 4 11 16 24 27 27 10 4 19 15 19 26 0
18 -8 19 -129 19 -106 0 -129 -3 -127 -14z"/>
<path d="M6728 1904 c-49 -24 -88 -47 -88 -51 0 -4 12 -17 26 -28 l27 -21 0
-264 0 -263 -26 -23 c-15 -13 -27 -28 -27 -34 0 -6 43 -10 120 -10 95 0 120 3
120 14 0 7 -10 20 -22 29 l-23 14 -1 329 c-2 371 -1 354 -11 353 -5 0 -47 -20
-95 -45z"/>
<path d="M7305 1909 c-103 -52 -106 -55 -71 -83 l29 -22 1 -263 0 -264 -27
-23 c-15 -13 -27 -28 -27 -34 0 -6 43 -10 120 -10 95 0 120 3 120 14 0 7 -10
20 -22 29 l-23 14 -1 329 c-2 370 -1 354 -11 353 -5 0 -44 -18 -88 -40z"/>
<path d="M8555 1909 c-104 -52 -106 -55 -71 -82 l29 -23 0 -264 1 -263 -27
-23 c-15 -13 -27 -28 -27 -34 0 -6 43 -10 120 -10 95 0 120 3 120 14 0 7 -10
20 -22 29 l-23 14 -2 329 c-1 375 -1 354 -10 353 -5 0 -44 -18 -88 -40z"/>
<path d="M4107 1898 c-44 -23 -81 -48 -85 -56 -3 -9 5 -23 21 -34 l27 -20 0
-254 0 -255 -25 -25 c-14 -14 -25 -29 -25 -34 0 -6 50 -10 120 -10 126 0 140
6 98 40 -23 18 -23 23 -26 269 -3 279 -2 284 64 316 42 20 79 13 95 -17 8 -15
12 -101 12 -281 l0 -258 -27 -27 c-14 -16 -26 -31 -26 -35 0 -4 54 -7 120 -7
126 0 140 6 98 40 -23 18 -23 22 -25 278 -1 154 -6 276 -13 301 -34 128 -155
146 -262 39 -29 -29 -38 -34 -39 -20 -1 34 -10 77 -17 84 -4 4 -42 -12 -85
-34z"/>
<path d="M4693 1897 c-46 -23 -83 -46 -83 -51 0 -6 11 -19 25 -31 l26 -20 0
-260 0 -260 -26 -22 c-44 -38 -33 -43 95 -43 70 0 120 4 120 10 0 5 -11 20
-24 33 -24 24 -24 24 -24 272 0 146 4 257 9 268 14 25 69 57 99 57 18 0 31 -9
43 -29 15 -25 17 -61 17 -290 l0 -261 -25 -16 c-14 -9 -25 -23 -25 -30 0 -11
24 -14 118 -14 103 0 119 2 119 16 0 9 -8 19 -18 21 -10 3 -20 11 -23 18 -4
10 -10 474 -7 521 1 18 75 64 102 64 14 0 34 -9 45 -21 18 -20 19 -40 19 -291
0 -269 0 -271 -22 -285 -13 -9 -23 -22 -23 -29 0 -11 24 -14 115 -14 108 0
115 1 115 20 0 11 -6 20 -14 20 -8 0 -18 6 -23 12 -4 7 -8 134 -9 283 -1 249
-2 274 -21 317 -23 51 -48 69 -105 76 -49 5 -115 -26 -161 -77 l-33 -37 -17
41 c-19 46 -60 75 -105 75 -47 0 -74 -14 -125 -64 -26 -25 -47 -44 -48 -43 0
1 -2 22 -4 46 -3 24 -8 48 -12 52 -4 4 -45 -11 -90 -34z"/>
<path d="M5685 1928 c-108 -37 -189 -210 -179 -380 13 -214 91 -331 229 -345
166 -17 277 127 275 357 0 81 -1 96 -16 165 -17 77 -85 167 -149 196 -44 20
-113 23 -160 7z m125 -53 c38 -34 53 -124 52 -310 -1 -106 -6 -175 -18 -239
-17 -93 -124 -110 -158 -25 -38 95 -41 409 -5 530 19 61 85 84 129 44z"/>
<path d="M7658 1931 c-77 -25 -124 -76 -132 -146 -8 -63 16 -105 60 -105 34 0
54 33 66 106 5 38 14 77 19 86 22 41 82 29 100 -20 6 -15 12 -71 13 -125 4
-112 12 -100 -95 -131 -72 -21 -116 -50 -154 -105 -27 -38 -30 -51 -30 -114 0
-54 5 -80 20 -105 29 -48 77 -75 123 -69 57 6 79 21 124 85 l16 24 12 -36 c26
-80 117 -100 171 -38 33 38 32 47 -10 55 -38 8 -40 19 -40 245 0 209 -4 251
-32 309 -29 61 -67 85 -142 89 -34 2 -74 0 -89 -5z m128 -467 l-1 -116 -33
-29 c-18 -16 -41 -29 -52 -29 -22 0 -59 36 -61 59 -11 124 13 184 86 217 61
27 61 26 61 -102z"/>
<path d="M8105 1897 c-73 -39 -109 -77 -72 -77 37 0 40 -24 40 -288 l-1 -256
-26 -23 c-14 -12 -26 -27 -26 -33 0 -6 46 -10 130 -10 102 0 130 3 130 13 0 8
-11 19 -24 25 -14 6 -29 19 -34 29 -6 10 -10 108 -11 218 0 163 3 209 17 248
24 70 42 75 81 27 62 -77 133 -32 125 77 -7 85 -69 118 -130 71 -33 -25 -40
-35 -71 -92 l-22 -41 -1 30 c-2 57 -9 108 -17 116 -4 4 -44 -11 -88 -34z"/>
<path d="M8908 1930 c-78 -23 -127 -80 -133 -153 -5 -61 17 -97 61 -97 35 0
55 33 66 110 11 74 32 110 63 110 18 0 61 -43 63 -62 1 -7 3 -57 6 -111 5
-111 12 -102 -96 -132 -107 -29 -182 -109 -187 -200 -5 -113 55 -195 145 -195
39 0 82 27 113 71 l29 40 12 -36 c29 -87 138 -102 183 -26 19 32 14 41 -19 41
-13 0 -26 6 -31 13 -4 6 -10 120 -13 252 -5 231 -6 242 -30 290 -19 38 -35 55
-70 73 -46 23 -110 28 -162 12z m127 -466 l0 -116 -33 -29 c-18 -16 -41 -29
-52 -29 -26 0 -60 38 -62 69 0 14 -2 37 -2 51 -5 88 56 162 139 169 7 1 11
-41 10 -115z"/>
</g>
</svg>
